<svg xmlns="http://www.w3.org/2000/svg" width="30" height="32" viewBox="0 0 30 32">
  <path fill="#822000" fill-rule="evenodd" d="M107.229943,19.6585143 C109.202057,20.7986286 110.4272,22.9197714 110.4272,25.1972571 L110.4272,34.8018286 C110.4272,37.0793143 109.202057,39.2022857 107.229943,40.3405714 L98.9108571,45.1433143 C97.9408,45.7028571 96.8354286,46 95.7136,46 C94.5917714,46 93.4864,45.7028571 92.5163429,45.1433143 L84.1972571,40.3405714 C82.2251429,39.2022857 81,37.0793143 81,34.8018286 L81,25.1972571 C81,22.9197714 82.2251429,20.7986286 84.1963429,19.6594286 L92.5163429,14.8566857 C93.4864,14.2962286 94.5917714,14 95.7136,14 C96.8354286,14 97.9408,14.2962286 98.9117714,14.8576 L107.229943,19.6585143 Z M106.685029,34.4982857 L106.685029,25.5008 C106.685029,24.4009143 106.101714,23.3851429 105.163657,22.8484571 L97.1636571,18.2715429 C96.2685714,17.7604571 95.1586286,17.7604571 94.2635429,18.2715429 L86.2635429,22.8484571 C85.3254857,23.3851429 84.7421714,24.4009143 84.7421714,25.5008 L84.7421714,34.4982857 C84.7421714,35.5981714 85.3254857,36.6139429 86.2635429,37.1506286 L94.2626286,41.7266286 C94.7106286,41.9835429 95.2116571,42.1115429 95.7136,42.1115429 C96.2155429,42.1115429 96.7165714,41.9835429 97.1636571,41.7266286 L105.163657,37.1506286 C106.101714,36.6139429 106.685029,35.5981714 106.685029,34.4982857 Z M90.0698057,28.1750857 L94.4784914,35.8660571 L86.5104914,35.2928 L90.0698057,28.1750857 Z M91.2144914,27.4152229 L95.7136914,27.4152229 L100.212891,27.4152229 L95.7136914,35.2634514 L91.2144914,27.4152229 Z M101.354651,28.1795657 L104.916709,35.2927086 L96.9487086,35.8659657 L101.354651,28.1795657 Z M95.7136,26.0437943 L91.3076571,26.0437943 L95.7136,19.3823086 L100.125029,26.0437943 L95.7136,26.0437943 Z M89.1278171,27.0023314 L86.1134171,33.0210743 L86.1134171,25.50016 C86.1134171,25.42976 86.1326171,25.3639314 86.1399314,25.2944457 L89.1278171,27.0023314 Z M105.3136,33.0241829 L102.295543,27.0045257 L105.287086,25.2938971 C105.2944,25.3633829 105.3136,25.4301257 105.3136,25.5005257 L105.3136,33.0241829 Z M101.613577,25.8152229 L97.9756343,20.3157943 L104.48352,24.0387657 C104.521006,24.0597943 104.549349,24.0927086 104.585006,24.11648 L101.613577,25.8152229 Z M96.3993143,37.2804571 L103.007771,36.8050286 L96.4825143,40.5371429 C96.456,40.5517714 96.4258286,40.5572571 96.3993143,40.5709714 L96.3993143,37.2804571 Z M89.8170971,25.8179657 L86.8420114,24.11648 C86.8776686,24.0927086 86.9060114,24.0597943 86.9434971,24.0387657 L93.4541257,20.31488 L89.8170971,25.8179657 Z M95.0278857,37.2804571 L95.0278857,40.5718857 C95.0004571,40.5572571 94.9712,40.5517714 94.9437714,40.5371429 L88.4194286,36.8050286 L95.0278857,37.2804571 Z" transform="translate(-81 -14)"/>
</svg>
