<svg xmlns="http://www.w3.org/2000/svg" width="32" height="32" viewBox="0 0 32 32">
  <path fill="#822000" d="M462,16 L436,16 C434.343125,16 433,17.343125 433,19 L433,41 C433,42.656875 434.343125,44 436,44 L462,44 C463.656875,44 465,42.656875 465,41 L465,19 C465,17.343125 463.656875,16 462,16 Z M447,40 L437,40 L437,34 L447,34 L447,40 Z M447,30 L437,30 L437,24 L447,24 L447,30 Z M461,40 L451,40 L451,34 L461,34 L461,40 Z M461,30 L451,30 L451,24 L461,24 L461,30 Z" transform="translate(-433 -16)"/>
</svg>
