<svg xmlns="http://www.w3.org/2000/svg" width="32" height="30" viewBox="0 0 32 30">
  <path fill="#822000" d="M286,21 L281,21 L281,18 C281,16.34375 279.65625,15 278,15 L268,15 C266.34375,15 265,16.34375 265,18 L265,21 L260,21 C258.34375,21 257,22.34375 257,24 L257,42 C257,43.65625 258.34375,45 260,45 L286,45 C287.65625,45 289,43.65625 289,42 L289,24 C289,22.34375 287.65625,21 286,21 Z M269,19 L277,19 L277,21 L269,21 L269,19 Z M279,34.5 C279,34.775 278.775,35 278.5,35 L275,35 L275,38.5 C275,38.775 274.775,39 274.5,39 L271.5,39 C271.225,39 271,38.775 271,38.5 L271,35 L267.5,35 C267.225,35 267,34.775 267,34.5 L267,31.5 C267,31.225 267.225,31 267.5,31 L271,31 L271,27.5 C271,27.225 271.225,27 271.5,27 L274.5,27 C274.775,27 275,27.225 275,27.5 L275,31 L278.5,31 C278.775,31 279,31.225 279,31.5 L279,34.5 Z" transform="translate(-257 -15)"/>
</svg>
