<svg xmlns="http://www.w3.org/2000/svg" width="56" height="56" viewBox="0 0 56 56">
  <path fill="#822000" d="M28,56 C12.536027,56 0,43.463973 0,28 C0,12.536027 12.536027,0 28,0 C43.463973,0 56,12.536027 56,28 C56,43.463973 43.463973,56 28,56 Z M43.3832753,36.4203587 C41.8048522,35.6288037 39.3886435,35.5191322 37.7899161,35.4463278 C37.2844958,35.4234021 36.8477977,35.4035745 36.6066454,35.3685664 C34.5196783,35.066815 33.590992,34.1516473 33.1799086,31.9919876 C32.7457095,29.7093349 33.1805333,28.3148968 34.439086,25.1945279 C35.6504703,22.1906461 38.4165373,17.6061326 38.4443385,17.5602813 L38.7470284,17.0599441 C38.8501116,16.8892409 38.7667079,16.6674196 38.5758477,16.6057681 L23.9174107,11.8725476 C23.7056215,11.8040804 23.491958,11.971066 23.5091386,12.1913383 L23.5641163,12.8849946 C23.5650534,12.8976966 23.6637634,14.1514827 23.6637634,14.7404245 C23.6637634,15.0452738 23.6637634,15.5558346 22.4039613,15.5558346 C20.8620859,15.5558346 18.203163,14.0563722 16.2617619,12.9618265 L16.0849585,12.8620689 C14.0070503,11.691311 10.839271,9.45760762 10.8077213,9.43499176 L10.1445524,8.96687446 C9.94838189,8.82839105 9.67474274,8.95293317 9.65256422,9.1905546 L9.57696984,9.99450192 C9.56853576,10.0868242 9.3726776,12.2783939 10.0717694,13.9315202 C10.1011325,14.000607 10.1404916,14.0703134 10.177664,14.1400199 C10.0508404,14.2654914 9.96462531,14.432477 9.94963138,14.6239373 C9.92901474,14.8888217 9.77438987,17.2554319 10.6505974,18.7620199 C10.6740254,18.8022947 10.6993277,18.8394715 10.7233804,18.8781972 C10.615924,18.9857 10.5384554,19.1244932 10.5090923,19.2843533 C10.5040943,19.3109966 10.390078,19.9392838 10.390078,20.6211674 C10.390078,22.800035 12.445183,24.1653514 13.6728107,24.9813811 C13.8230623,25.0811388 13.9598819,25.171912 14.0767096,25.2543205 C14.9700977,25.883537 16.6175553,27.6327033 17.2248093,28.5958911 C18.0491629,29.9045129 19.7275455,31.4643875 23.0412031,31.4643875 C26.5694614,31.4643875 29.0281529,28.4710392 29.0281529,25.784399 C29.0281529,23.0940412 26.7862486,20.90495 24.0301775,20.90495 C21.3331451,20.90495 20.1255093,22.7594504 20.1255093,24.5969115 C20.1255093,26.3315169 21.607409,27.5400713 22.9368704,27.5400713 C24.1104575,27.5400713 24.8111112,26.9031095 24.8111112,25.8361367 C24.8111112,24.925616 24.2616463,24.5160521 24.1513784,24.4432476 C23.7924613,24.2053164 23.3073453,24.3019759 23.0683796,24.6576336 C22.8434707,24.9922243 22.9153166,25.4371062 23.2226921,25.6865002 C23.2314386,25.7032298 23.2492439,25.7478419 23.2492439,25.8361367 C23.2492439,25.8949999 23.2445583,25.9334159 23.2404974,25.9563415 C23.1998889,25.969973 23.1089882,25.9910398 22.9368704,25.9910398 C22.4964238,25.9910398 21.6873766,25.4618907 21.6873766,24.5969115 C21.6873766,24.0944057 21.8563706,22.4539814 24.0301775,22.4539814 C25.9250349,22.4539814 27.4662856,23.9481772 27.4662856,25.784399 C27.4662856,27.5094004 25.782905,29.9153561 23.0412031,29.9153561 C20.9554855,29.9153561 19.4439104,29.1953663 18.5492728,27.7749044 C17.8361242,26.6438017 16.0356035,24.7344655 14.9813431,23.9912402 C14.8542071,23.9017062 14.7055173,23.802878 14.542146,23.6944458 C13.5106888,23.0088445 11.9519453,21.9734719 11.9519453,20.6211674 C11.9519453,20.4693623 11.9597546,20.3206553 11.9703753,20.1834111 C12.5948099,20.6220968 13.3170173,20.93686 14.0985757,21.2764077 C14.3403528,21.3814321 14.5927505,21.4911035 14.855769,21.6097593 C14.9607264,21.6574695 15.0706819,21.6797755 15.1790755,21.6797755 C15.514877,21.6797755 15.8341226,21.4638405 15.9337698,21.1072535 C16.0374778,20.737035 15.8284999,20.3466791 15.4758303,20.1877484 C15.2153108,20.0703318 14.9650997,19.9615898 14.7251969,19.8574949 C13.4085427,19.2855925 12.5385826,18.9079386 12.0034869,17.987814 C11.6505049,17.3805936 11.5283669,16.4285589 11.498379,15.6778983 C12.66853,16.7086238 14.1032613,17.5429321 14.3391033,17.6767685 C14.7264464,17.8973505 15.224682,17.7517416 15.4267877,17.349613 C15.6138994,16.976916 15.4455301,16.5221204 15.0825521,16.3139306 C13.8889731,15.6292587 11.8932191,14.2335814 11.5121234,13.3323549 C11.2794052,12.7821389 11.1756972,12.1244202 11.1335268,11.5491099 C12.2721281,12.3248648 13.981748,13.4587558 15.3133961,14.2091067 L15.4898871,14.3082447 C17.6993046,15.5542856 20.4491282,17.104866 22.4039613,17.104866 C24.1707456,17.104866 25.2256308,16.2209887 25.2256308,14.7404245 C25.2256308,14.5145757 25.2134482,14.2137538 25.1975171,13.9147907 L36.6091444,17.5999365 C35.7369977,19.0916538 33.9396008,22.2619015 32.988736,24.6192176 C31.738305,27.7197589 31.1107468,29.4686154 31.6452178,32.2791781 C32.1781269,35.0792073 33.6387852,36.5049358 36.3811118,36.9014879 C36.699108,36.9473392 37.1489258,36.9680962 37.7183826,36.9938102 C39.1840389,37.0604185 41.3990791,37.1611056 42.6785608,37.8027144 C44.5618604,38.7470039 45.0963314,40.3778243 44.7905177,41.5752256 C44.5521768,42.5092915 44.2860346,43.1992301 44.1117302,43.6004293 L31.9663377,43.6004293 C30.9758014,43.1072177 26.037177,40.6616068 24.36348,40.0785514 C22.9359333,39.5810025 18.5483356,38.6729602 16.5541435,38.2717611 L19.3936182,32.5152505 C19.5729206,32.1512281 19.4726487,31.6917853 19.1252894,31.4783288 C18.7257638,31.2329622 18.2112847,31.3872458 18.0101162,31.7952606 L14.4381256,39.036363 C14.3481621,39.2191487 14.4568681,39.4369426 14.6583489,39.4765978 L15.2565441,39.5937045 C15.3249539,39.6070262 22.1212633,40.9385736 23.8458772,41.5399076 C25.575489,42.1424809 31.3712662,45.0373108 31.4293677,45.0667424 L31.595238,45.1494607 L45.0719662,45.1494607 L45.2937514,44.7454733 C45.3165547,44.7036495 45.8572731,43.7070026 46.3045919,41.9559775 C46.7634685,40.1594108 46.0381373,37.7512865 43.3832753,36.4203587 Z M21.8848119,41.659856 L14.3565941,39.9898888 C13.9434807,39.8993918 13.5355734,40.1661858 13.445846,40.5889226 C13.3564249,41.0116595 13.6185635,41.4284467 14.0319831,41.5201963 L21.560201,43.1901634 C21.6150174,43.2020627 21.6695275,43.2080123 21.7234252,43.2080123 C22.0759037,43.2080123 22.3928587,42.9578147 22.4709491,42.5911297 C22.5603702,42.1683928 22.2982315,41.7516056 21.8848119,41.659856 Z M31.6113713,45.7966361 L31.6113713,47.0909091 L44.4002773,47.0909091 L44.4002773,45.7966361 L31.6113713,45.7966361 Z"/>
</svg>
