<?xml version="1.0" encoding="UTF-8" standalone="no"?>
<svg
   xmlns:dc="http://purl.org/dc/elements/1.1/"
   xmlns:cc="http://creativecommons.org/ns#"
   xmlns:rdf="http://www.w3.org/1999/02/22-rdf-syntax-ns#"
   xmlns:svg="http://www.w3.org/2000/svg"
   xmlns="http://www.w3.org/2000/svg"
   xmlns:sodipodi="http://sodipodi.sourceforge.net/DTD/sodipodi-0.dtd"
   xmlns:inkscape="http://www.inkscape.org/namespaces/inkscape"
   width="48"
   height="48"
   viewBox="0 0 48 48"
   id="svg4136"
   version="1.1"
   inkscape:version="0.91 r13725"
   sodipodi:docname="logo-improved-initiative-mobile.svg">
  <metadata
     id="metadata4144">
    <rdf:RDF>
      <cc:Work
         rdf:about="">
        <dc:format>image/svg+xml</dc:format>
        <dc:type
           rdf:resource="http://purl.org/dc/dcmitype/StillImage" />
        <dc:title></dc:title>
      </cc:Work>
    </rdf:RDF>
  </metadata>
  <defs
     id="defs4142" />
  <sodipodi:namedview
     pagecolor="#ffffff"
     bordercolor="#666666"
     borderopacity="1"
     objecttolerance="10"
     gridtolerance="10"
     guidetolerance="10"
     inkscape:pageopacity="0"
     inkscape:pageshadow="2"
     inkscape:window-width="1440"
     inkscape:window-height="897"
     id="namedview4140"
     showgrid="false"
     inkscape:zoom="6.5"
     inkscape:cx="28"
     inkscape:cy="28.076923"
     inkscape:window-x="-8"
     inkscape:window-y="-8"
     inkscape:window-maximized="1"
     inkscape:current-layer="svg4136" />
  <rect
     style="fill:#f5f5f5;fill-opacity:0;stroke:none;stroke-width:17.71653557;stroke-linecap:round;stroke-linejoin:round;stroke-miterlimit:6.17600012;stroke-dasharray:none;stroke-dashoffset:0;stroke-opacity:1"
     id="rect4146"
     width="48"
     height="48"
     x="0"
     y="0"
     inkscape:export-xdpi="960"
     inkscape:export-ydpi="960" />
  <ellipse
     style="fill:#f5f5f5;fill-opacity:1;stroke:none;stroke-width:17.71653557;stroke-linecap:round;stroke-linejoin:round;stroke-miterlimit:6.17600012;stroke-dasharray:none;stroke-dashoffset:0;stroke-opacity:1"
     id="path4150"
     cx="23.923077"
     cy="24"
     rx="21.76923"
     ry="21.846153" />
  <path
     d="M 24,46 C 11.849735,46 2,36.150265 2,24 2,11.849735 11.849735,2 24,2 36.150265,2 46,11.849735 46,24 46,36.150265 36.150265,46 24,46 Z M 36.086859,30.615996 c -1.24019,-0.621936 -3.138639,-0.708107 -4.394782,-0.76531 -0.397116,-0.01802 -0.740236,-0.03359 -0.929713,-0.0611 -1.639759,-0.23709 -2.369442,-0.95615 -2.692436,-2.653025 -0.341156,-1.793513 4.91e-4,-2.889144 0.989354,-5.340861 0.951802,-2.360194 3.12514,-5.962311 3.146984,-5.998338 l 0.237827,-0.393121 c 0.08099,-0.134125 0.01546,-0.308412 -0.134498,-0.356853 L 20.792251,11.328433 c -0.166406,-0.0538 -0.334285,0.07741 -0.320785,0.250477 l 0.04319,0.545016 c 7.37e-4,0.01 0.0783,0.995098 0.0783,1.457838 0,0.239524 0,0.64068 -0.989844,0.64068 -1.211474,0 -3.300628,-1.17815 -4.826015,-2.03815 l -0.138916,-0.07838 C 13.00554,11.18603 10.51657,9.430978 10.491781,9.413208 L 9.9707196,9.045402 C 9.8165855,8.936593 9.6015837,9.034443 9.5841576,9.22115 l -0.0594,0.631672 c -0.0066,0.07254 -0.1605151,1.794487 0.3887715,3.093372 0.023069,0.05429 0.053994,0.109052 0.083202,0.163822 -0.09965,0.09858 -0.1673876,0.229788 -0.1791691,0.38022 -0.016196,0.208124 -0.1376896,2.067603 0.550759,3.251351 0.01841,0.03165 0.03829,0.06086 0.05719,0.09128 -0.08443,0.08447 -0.145298,0.193518 -0.168369,0.319123 -0.004,0.02093 -0.09351,0.514588 -0.09351,1.050353 0,1.711968 1.614724,2.784716 2.579289,3.425883 0.118055,0.07838 0.225555,0.149703 0.317349,0.214452 0.701947,0.494385 1.996378,1.868729 2.473507,2.62552 0.647706,1.028203 1.966435,2.253818 4.570023,2.253818 2.772203,0 4.704033,-2.351916 4.704033,-4.462848 0,-2.113852 -1.761497,-3.833853 -3.926981,-3.833853 -2.119097,0 -3.067954,1.457107 -3.067954,2.900827 0,1.362905 1.16435,2.312483 2.208927,2.312483 0.922104,0 1.472617,-0.50047 1.472617,-1.338805 0,-0.71541 -0.431722,-1.03721 -0.518361,-1.094413 -0.282006,-0.186947 -0.663169,-0.110999 -0.850927,0.168446 -0.176715,0.262892 -0.120265,0.612442 0.121245,0.808395 0.0069,0.01315 0.02086,0.04819 0.02086,0.117572 0,0.04625 -0.0037,0.07643 -0.0069,0.09444 -0.03191,0.01071 -0.103327,0.02727 -0.238564,0.02727 -0.346065,0 -0.981746,-0.41576 -0.981746,-1.095387 0,-0.394826 0.132782,-1.683731 1.840773,-1.683731 1.488816,0 2.699799,1.174011 2.699799,2.616757 0,1.355359 -1.322656,3.245753 -3.476851,3.245753 -1.638778,0 -2.826444,-0.565707 -3.529373,-1.681784 -0.560332,-0.888724 -1.975026,-2.388917 -2.803374,-2.972879 -0.09989,-0.07035 -0.21672,-0.147999 -0.345083,-0.233196 -0.81043,-0.538687 -2.035158,-1.352193 -2.035158,-2.414719 0,-0.119275 0.0062,-0.236116 0.01448,-0.343951 0.490628,0.344682 1.058077,0.591996 1.672158,0.858784 0.189968,0.08252 0.388281,0.168688 0.594938,0.261918 0.08247,0.03748 0.16886,0.05501 0.254027,0.05501 0.263844,0 0.514679,-0.169664 0.592973,-0.44984 0.08148,-0.290886 -0.08271,-0.597594 -0.359809,-0.722468 -0.204694,-0.09225 -0.401288,-0.177696 -0.589783,-0.259485 -1.034515,-0.449352 -1.718055,-0.74608 -2.138487,-1.469034 -0.277344,-0.477103 -0.373309,-1.22513 -0.396871,-1.814934 0.919404,0.809855 2.046694,1.465383 2.231998,1.570541 0.304341,0.173314 0.695812,0.05891 0.85461,-0.257051 0.147016,-0.292834 0.01473,-0.650173 -0.270472,-0.813751 -0.937765,-0.537953 -2.505858,-1.634557 -2.805291,-2.342663 -0.182849,-0.432313 -0.264334,-0.949092 -0.297468,-1.401121 0.894615,0.609522 2.237888,1.500436 3.284183,2.089997 l 0.138671,0.0779 c 1.735971,0.979033 3.896547,2.197345 5.432487,2.197345 1.388188,0 2.217026,-0.694475 2.217026,-1.857775 0,-0.177452 -0.0095,-0.413813 -0.02208,-0.648712 l 8.966278,2.89547 c -0.685258,1.172065 -2.097498,3.662973 -2.844607,5.515151 -0.982481,2.43614 -1.475563,3.810241 -1.055621,6.01854 0.418714,2.200023 1.566374,3.320238 3.72106,3.631816 0.249854,0.03603 0.603282,0.05234 1.050712,0.07254 1.151587,0.05234 2.891976,0.131446 3.897284,0.635566 1.479734,0.741943 1.899677,2.023301 1.659394,2.964118 -0.187268,0.733908 -0.39638,1.276002 -0.533333,1.59123 l -9.542809,0 c -0.778299,-0.387523 -4.658647,-2.309075 -5.973694,-2.76719 -1.121644,-0.390932 -4.569042,-1.104393 -6.135907,-1.41962 l 2.231015,-4.522974 c 0.14088,-0.286017 0.06209,-0.647007 -0.21083,-0.814723 -0.313912,-0.192789 -0.718146,-0.07156 -0.876207,0.249018 l -2.806564,5.689437 c -0.07068,0.143618 0.01473,0.314741 0.173033,0.345899 l 0.47001,0.09201 c 0.05375,0.01048 5.393707,1.056683 6.748762,1.52916 1.358981,0.473451 5.912806,2.74796 5.958457,2.771084 l 0.130326,0.06499 10.588858,0 0.17426,-0.317419 c 0.01791,-0.03286 0.442767,-0.81594 0.794232,-2.191746 0.360545,-1.411588 -0.209358,-3.303687 -2.295321,-4.349415 z m -16.89165,4.116748 -5.915027,-1.312117 c -0.32459,-0.07111 -0.645089,0.138519 -0.715589,0.470669 -0.07025,0.33215 0.135707,0.659626 0.460536,0.731715 l 5.915029,1.312117 c 0.04307,0.0093 0.08589,0.01403 0.128248,0.01403 0.276947,0 0.525983,-0.196583 0.58734,-0.484693 0.07026,-0.33215 -0.135707,-0.659626 -0.460537,-0.731715 z m 7.642297,3.250327 0,1.016929 10.048426,0 0,-1.016929 -10.048426,0 z"
     id="path4138"
     inkscape:connector-curvature="0"
     style="fill:#822000" />
</svg>
