<svg xmlns="http://www.w3.org/2000/svg" xmlns:xlink="http://www.w3.org/1999/xlink" width="258" height="32" viewBox="0 0 258 32">
  <defs>
    <polygon id="logo-patreon-improved-initiative-a" points=".016 .013 2.163 .013 2.163 31.712 .016 31.712"/>
  </defs>
  <g fill="none" fill-rule="evenodd">
    <text fill="#FFF" font-family="SpectralSC-Bold, Spectral SC" font-size="14.5" font-weight="bold">
      <tspan x="99" y="20">Improved Initiative</tspan>
    </text>
    <g transform="translate(86.77)">
      <mask id="logo-patreon-improved-initiative-b" fill="#fff">
        <use xlink:href="#logo-patreon-improved-initiative-a"/>
      </mask>
      <polygon fill="#FFFFFE" points=".016 31.712 2.163 31.712 2.163 .013 .016 .013" mask="url(#logo-patreon-improved-initiative-b)"/>
    </g>
    <path fill="#FFFFFE" d="M5.62040686 14.0203518C5.62040686 13.10595 4.9779152 12.3182158 3.98526423 12.3182158L2.36487246 12.3182158 2.36487246 15.7220227 3.98526423 15.7220227C4.9779152 15.7220227 5.62040686 14.9347535 5.62040686 14.0203518zM0 10.4615385L4.27708377 10.4615385C6.5399672 10.4615385 8 12.1074616 8 14.0203518 8 15.9332419 6.5399672 17.578671 4.27708377 17.578671L2.36487246 17.578671 2.36487246 20.3076923 0 20.3076923 0 10.4615385zM14.4472772 13.2746754L13.2297054 17.325888 15.6362974 17.325888 14.4472772 13.2746754zM16.5851733 20.3076923L16.2032943 19.1121396 12.6780082 19.1121396 12.2956027 20.3076923 9.84615385 20.3076923 13.3857158 10.4615385 15.4950601 10.4615385 19.0769231 20.3076923 16.5851733 20.3076923z"/>
    <polyline fill="#FFFFFE" points="23.156 12.431 20.923 12.431 20.923 10.462 27.692 10.462 27.692 12.431 25.445 12.431 25.445 20.308 23.156 20.308 23.156 12.431"/>
    <path fill="#FFFFFE" d="M36.9844351,14.0203518 C36.9844351,13.10595 36.3442667,12.3182158 35.3551616,12.3182158 L33.7406151,12.3182158 L33.7406151,15.7220227 L35.3551616,15.7220227 C36.3442667,15.7220227 36.9844351,14.9347535 36.9844351,14.0203518 Z M31.3846154,10.4615385 L35.66112,10.4615385 C37.9152338,10.4615385 39.3698885,12.1074616 39.3698885,14.0203518 C39.3698885,15.3988139 38.6134079,16.6222404 37.3477982,17.1992495 L39.3846154,20.3076923 L36.6502251,20.3076923 L34.8460325,17.578671 L33.7406151,17.578671 L33.7406151,20.3076923 L31.3846154,20.3076923 L31.3846154,10.4615385 Z"/>
    <polyline fill="#FFFFFE" points="45.412 12.29 45.412 14.526 49.231 14.526 49.231 16.313 45.412 16.313 45.412 18.479 49.231 18.479 49.231 20.308 43.077 20.308 43.077 10.462 49.231 10.462 49.231 12.29 45.412 12.29"/>
    <path fill="#FFFFFE" d="M61.0554856,15.6923077 C61.0554856,14.0577529 59.9539332,12.5368345 58.1612851,12.5368345 C56.3540508,12.5368345 55.2670847,14.0577529 55.2670847,15.6923077 C55.2670847,17.3268625 56.3540508,18.8477515 58.1612851,18.8477515 C59.9539332,18.8477515 61.0554856,17.3268625 61.0554856,15.6923077 Z M52.9230769,15.6923077 C52.9230769,12.963272 54.871506,10.4615385 58.1612851,10.4615385 C61.4361863,10.4615385 63.3846154,12.963272 63.3846154,15.6923077 C63.3846154,18.421314 61.4361863,20.9230769 58.1612851,20.9230769 C54.871506,20.9230769 52.9230769,18.421314 52.9230769,15.6923077 Z"/>
    <polyline fill="#FFFFFE" points="73.929 16.876 73.929 10.462 76.308 10.462 76.308 20.308 73.811 20.308 70.086 13.978 70.086 20.308 67.692 20.308 67.692 10.462 70.189 10.462 73.929 16.876"/>
  </g>
</svg>
